<svg width="1120" height="740" viewBox="0 0 1120 740" fill="none" xmlns="http://www.w3.org/2000/svg">
<rect width="1120" height="740" rx="8" fill="#202024"/>
<path opacity="0.5" d="M63.2861 78.3768L60.7648 87.8371C60.715 88.0031 60.516 88.0529 60.3998 87.9367L40.0633 67.6054C39.9472 67.4892 39.9969 67.2901 40.1628 67.2403L49.6178 64.7009L63.2861 78.3768Z" fill="#00B37E"/>
<path d="M68.1957 60.0538L63.2857 78.3768L49.6174 64.7009L67.9303 59.7882C68.0962 59.7384 68.2454 59.8878 68.1957 60.0538Z" fill="#00B37E"/>
<path fill-rule="evenodd" clip-rule="evenodd" d="M1062 52C1062.45 51.9983 1062.9 52.0918 1063.31 52.2753C1063.73 52.459 1064.11 52.7293 1064.43 53.0706C1064.75 53.4118 1065 53.8172 1065.17 54.2634C1065.34 54.709 1065.43 55.1864 1065.43 55.6682L1065.43 55.6704L1064.57 55.6666H1065.43V55.6682V68.4996C1065.43 69.0058 1065.04 69.4162 1064.57 69.4162C1064.1 69.4162 1063.71 69.0058 1063.71 68.4996V55.6666L1063.71 55.6627C1063.72 55.4222 1063.67 55.1839 1063.59 54.9615C1063.5 54.739 1063.37 54.537 1063.22 54.3669C1063.06 54.1968 1062.87 54.0621 1062.66 53.9705C1062.45 53.8789 1062.23 53.8323 1062 53.8333L1062 53.8333H1047.43C1046.96 53.8333 1046.57 53.4229 1046.57 52.9167C1046.57 52.4104 1046.96 52 1047.43 52H1062ZM1062 52L1062 52L1062 52.9167V52H1062Z" fill="#E1E1E6"/>
<path fill-rule="evenodd" clip-rule="evenodd" d="M1053.43 60.2526C1053.43 59.7463 1053.81 59.3359 1054.28 59.3359H1061.14C1061.62 59.3359 1062 59.7463 1062 60.2526C1062 60.7588 1061.62 61.1692 1061.14 61.1692H1054.28C1053.81 61.1692 1053.43 60.7588 1053.43 60.2526Z" fill="#E1E1E6"/>
<path fill-rule="evenodd" clip-rule="evenodd" d="M1053.43 63.9205C1053.43 63.4143 1053.81 63.0039 1054.28 63.0039H1061.14C1061.62 63.0039 1062 63.4143 1062 63.9205C1062 64.4268 1061.62 64.8372 1061.14 64.8372H1054.28C1053.81 64.8372 1053.43 64.4268 1053.43 63.9205Z" fill="#E1E1E6"/>
<path fill-rule="evenodd" clip-rule="evenodd" d="M1047.63 53.8465C1047.36 53.8112 1047.08 53.8481 1046.82 53.9541C1046.56 54.0601 1046.33 54.2319 1046.14 54.4548C1045.96 54.6777 1045.83 54.945 1045.76 55.2337C1045.7 55.5223 1045.7 55.8237 1045.77 56.1119C1045.83 56.4001 1045.96 56.6664 1046.15 56.888C1046.47 57.2656 1046.43 57.845 1046.08 58.1823C1045.73 58.5195 1045.19 58.4868 1044.87 58.1092C1044.5 57.6661 1044.24 57.1334 1044.1 56.557C1043.97 55.9807 1043.97 55.3779 1044.1 54.8006C1044.23 54.2232 1044.49 53.6887 1044.86 53.2429C1045.22 52.7971 1045.69 52.4534 1046.21 52.2415C1046.72 52.0295 1047.28 51.9556 1047.84 52.0261C1048.39 52.0967 1048.91 52.3095 1049.37 52.6463C1049.83 52.9832 1050.2 53.4339 1050.46 53.9597C1050.72 54.4855 1050.86 55.0707 1050.86 55.6648V70.3311C1050.86 70.6281 1050.92 70.9207 1051.05 71.1836C1051.18 71.4466 1051.37 71.6719 1051.6 71.8403C1051.83 72.0087 1052.09 72.1152 1052.37 72.1504C1052.64 72.1857 1052.92 72.1487 1053.18 72.0428C1053.44 71.9368 1053.67 71.7649 1053.86 71.5421C1054.04 71.3192 1054.17 71.0519 1054.24 70.7632C1054.3 70.4745 1054.3 70.1732 1054.23 69.885C1054.17 69.5968 1054.03 69.3305 1053.85 69.1089C1053.62 68.8394 1053.57 68.4536 1053.71 68.1238C1053.84 67.7939 1054.15 67.5816 1054.49 67.5816H1066.49C1066.73 67.5816 1066.96 67.6928 1067.13 67.8872C1067.57 68.4149 1067.86 69.0679 1067.96 69.7674C1068.06 70.4669 1067.97 71.183 1067.7 71.8292C1067.43 72.4754 1066.99 73.0241 1066.44 73.409C1065.88 73.7938 1065.23 73.9984 1064.57 73.9981H1052.57C1052.55 73.9981 1052.53 73.9975 1052.51 73.9962C1052.4 73.9941 1052.28 73.9856 1052.16 73.9707C1051.61 73.9002 1051.09 73.6874 1050.63 73.3505C1050.17 73.0137 1049.8 72.563 1049.54 72.0372C1049.28 71.5114 1049.14 70.9262 1049.14 70.3321V55.6658C1049.14 55.3687 1049.07 55.0761 1048.95 54.8132C1048.82 54.5503 1048.63 54.325 1048.4 54.1566C1048.17 53.9881 1047.91 53.8817 1047.63 53.8465ZM1055.54 72.1648H1064.57C1064.9 72.165 1065.23 72.0627 1065.5 71.8703C1065.78 71.6778 1066 71.4035 1066.14 71.0804C1066.27 70.7573 1066.32 70.3992 1066.27 70.0495C1066.23 69.8249 1066.16 69.6099 1066.06 69.4149H1055.89C1055.89 69.4232 1055.89 69.4315 1055.9 69.4398C1056.03 70.0162 1056.03 70.619 1055.9 71.1963C1055.82 71.5372 1055.7 71.8632 1055.54 72.1648Z" fill="#E1E1E6"/>
<path fill-rule="evenodd" clip-rule="evenodd" d="M995.702 50C995.702 49.4477 996.143 49 996.688 49H1002.15C1002.69 49 1003.14 49.4477 1003.14 50C1003.14 50.5523 1002.69 51 1002.15 51H996.688C996.143 51 995.702 50.5523 995.702 50ZM999.419 54.6923C994.433 54.6923 990.391 58.7906 990.391 63.8462C990.391 68.9017 994.433 73 999.419 73C1004.4 73 1008.45 68.9017 1008.45 63.8462C1008.45 58.7906 1004.4 54.6923 999.419 54.6923ZM988.419 63.8462C988.419 57.6861 993.344 52.6923 999.419 52.6923C1005.49 52.6923 1010.42 57.6861 1010.42 63.8462C1010.42 70.0063 1005.49 75 999.419 75C993.344 75 988.419 70.0063 988.419 63.8462ZM1004.62 58.5693C1005.01 58.9599 1005.01 59.593 1004.62 59.9835L1000.12 64.5528C999.731 64.9433 999.107 64.9433 998.722 64.5528C998.336 64.1623 998.336 63.5291 998.722 63.1386L1003.23 58.5693C1003.61 58.1788 1004.24 58.1788 1004.62 58.5693Z" fill="#00875F"/>
<path opacity="0.5" d="M70.9544 60.2702L61.1676 96.8334C61.1179 96.9993 60.9188 97.0491 60.8027 96.9329L54.2505 90.3771L59.1605 72.0541C59.2103 71.8881 59.061 71.7387 58.8951 71.7885L40.5823 76.7012L34.0633 70.1786C33.9472 70.0624 33.9969 69.8633 34.1628 69.8135L70.689 60.0047C70.8549 59.9715 71.0042 60.1209 70.9544 60.2702Z" fill="#00B37E"/>
</svg>
